<svg xmlns="http://www.w3.org/2000/svg" viewBox="0 0 74.191 76.011"><defs><style>.a{fill:#5f4ee4;}</style></defs><g transform="translate(-43 -80)"><path class="a" d="M789.135-475.481l2.284-2.819-12.383-14.631H774.4l-3-3.569H737.355l-3,3.569h-4.639L717.336-478.3l2.284,2.819-2.32,2.748,27.371,33.866.25.321h4.568l3.747,4.639L749.81-429.7l4.568,5.638,4.568-5.638-3.426-4.211,3.747-4.639h4.568l27.657-34.187Zm-10.956-15.7L789.064-478.3l-1.142,1.392-12.1-14.31h2.355Zm-40.039-3.533h32.4l1.5,1.784h-35.4Zm-7.637,3.533h2.32l-12.1,14.31-1.142-1.392Zm15.2,50.852L719.513-472.7l1.177-1.392,27.3,33.759ZM756.59-429.7l-2.248,2.819-2.248-2.819,2.248-2.819Zm-2.248-5.6h0l-2.605-3.247h5.21Zm4.068-5.032h-8.136l-28.406-35.15,13.275-15.7h38.4l13.275,15.7Zm4.568,0h-2.284l27.3-33.759,1.178,1.392Z" transform="translate(-674.3 580.069)"/><path class="a" d="M808.973-506.5H785.6l-1.5,1.784h26.372Z" transform="translate(-717.262 586.5)"/><path class="a" d="M753.5-451.6l.107.964c0,.107,1,9.064,10.385,9.956,2.427,6.709,7.209,11.419,12.775,11.883v8.386h-6.316v1.784h14.417v-1.784h-6.316V-428.8c5.567-.464,10.349-5.174,12.775-11.883,9.385-.892,10.385-9.885,10.385-9.956l.107-.964Zm2.07,1.784h6.745a29.591,29.591,0,0,0,1.106,7.28A9.259,9.259,0,0,1,755.57-449.816Zm22.089,19.306c-7.315,0-13.275-8.565-13.6-19.306h27.193C790.97-439.11,784.975-430.51,777.659-430.51Zm14.274-11.99a29.861,29.861,0,0,0,1.106-7.28h6.745A9.34,9.34,0,0,1,791.934-442.5Z" transform="translate(-697.582 551.192)"/><path class="a" d="M812.526-461.5H790.9v1.784h21.626Z" transform="translate(-721.635 557.559)"/><path class="a" d="M815.646-471.5H801.8v1.784h13.846Z" transform="translate(-728.646 563.99)"/><path class="a" d="M812.04-404.565a6.615,6.615,0,0,1-2.569-1.035l-1.071,1.427a8.283,8.283,0,0,0,3.676,1.392Z" transform="translate(-732.89 521.607)"/><path class="a" d="M794.3-428.589l1.106-1.427c-2.855-2.712-4.782-7.458-4.925-11.883l-1.784.071C788.879-436.94,791.02-431.658,794.3-428.589Z" transform="translate(-720.22 544.953)"/><path class="a" d="M846.058-381.491a.867.867,0,0,1,.107,1.249.867.867,0,0,1-1.249.107.867.867,0,0,1-.107-1.249A.867.867,0,0,1,846.058-381.491Z" transform="translate(-756.167 506.241)"/><path class="a" d="M872.858-413.091a.867.867,0,0,1,.107,1.249.867.867,0,0,1-1.249.107.867.867,0,0,1-.107-1.249A.867.867,0,0,1,872.858-413.091Z" transform="translate(-773.404 526.564)"/><path class="a" d="M859.458-397.291a.867.867,0,0,1,.107,1.249.867.867,0,0,1-1.249.107.867.867,0,0,1-.107-1.249A.867.867,0,0,1,859.458-397.291Z" transform="translate(-764.785 516.402)"/><path class="a" d="M793.616-381.491a.867.867,0,0,0-.107,1.249.867.867,0,0,0,1.249.107.867.867,0,0,0,.107-1.249A.862.862,0,0,0,793.616-381.491Z" transform="translate(-723.174 506.241)"/><path class="a" d="M766.916-413.091a.867.867,0,0,0-.107,1.249.867.867,0,0,0,1.249.107.867.867,0,0,0,.107-1.249A.867.867,0,0,0,766.916-413.091Z" transform="translate(-706.002 526.564)"/><path class="a" d="M780.316-397.291a.867.867,0,0,0-.107,1.249.867.867,0,0,0,1.249.107.867.867,0,0,0,.107-1.249A.867.867,0,0,0,780.316-397.291Z" transform="translate(-714.62 516.402)"/></g></svg>