<svg xmlns="http://www.w3.org/2000/svg" viewBox="0 0 89.928 71.8"><defs><style>.a{fill:#5f4ee4;}</style></defs><g transform="translate(-140 -188)"><path class="a" d="M1136.678-79.836h8.351L1140.6-86.9h-6.245l-2.819-4.5,2.105-3.283-25.694-41h-4.175l-2.676-4.282,3.14-5-4.175-6.638-4.175,6.638,3.141,5-2.677,4.282h-4.175l-25.694,41.039,2.105,3.283-2.819,4.5h-6.245L1055.1-79.8h8.35l3.319-5.281h5.924l2.284,3.533h50.245l2.284-3.533h5.888Zm2.962-5.281,2.212,3.533h-4.175l-2.213-3.533Zm-32.652-48.747,24.587,39.219L1130.5-93l-25.587-40.824ZM1129.433-91.4l-2.926,4.5h-52.886l-2.926-4.532,26.621-42.466h5.5Zm-31.439-53.529,2.105-3.319,2.07,3.319-2.07,3.319Zm2.07,6.673,1.642,2.605h-3.283Zm-31.475,43.572,24.588-39.219h2.07L1069.66-93.075Zm-6.138,13.061h-4.175l2.212-3.533h4.175Zm5.424-5.281,1.784-2.855,1.856,2.855Zm56.348,3.533H1075.9l-1.142-1.749h50.6Zm6.245-6.388,1.784,2.855h-3.64Z" transform="translate(-915.1 339.6)"/><path class="a" d="M1180.484-89.908a.884.884,0,0,1-.892.892.883.883,0,0,1-.892-.892.883.883,0,0,1,.892-.892A.884.884,0,0,1,1180.484-89.908Z" transform="translate(-994.593 300.497)"/><path class="a" d="M1188.984-77.008a.883.883,0,0,1-.892.892.883.883,0,0,1-.892-.892.883.883,0,0,1,.892-.892A.883.883,0,0,1,1188.984-77.008Z" transform="translate(-1000.059 292.2)"/><path class="a" d="M1171.584-77.008a.884.884,0,0,1-.892.892.883.883,0,0,1-.892-.892.883.883,0,0,1,.892-.892A.884.884,0,0,1,1171.584-77.008Z" transform="translate(-988.868 292.2)"/><path class="a" d="M1155.115-56.427c-4.818-8.315-11.812-12.99-15.951-10.6a3.844,3.844,0,0,0-.856.642l-4,3.033-.036.036c-1.82,1.57-2.677,4.14-2.534,7.28h-3.354v4.389h-4.1v8.779H1120v6.174h24.2l-1.641-1.534a29.182,29.182,0,0,1-5.424-6.923c-4.139-7.173-4.853-14.06-1.713-16.772l1.142-.856a13.663,13.663,0,0,0-.107,3.462,28.479,28.479,0,0,0,3.926,11.455c3.961,6.852,9.385,11.241,13.489,11.241a4.654,4.654,0,0,0,2.427-.642C1160.432-39.69,1159.9-48.076,1155.115-56.427Zm-24.944,2.177h1.749a18.029,18.029,0,0,0,.571,2.605h-2.284V-54.25Zm2.855,4.389a20.036,20.036,0,0,0,1.071,2.605h-8.029v-2.605Zm4.675,8.779a26.035,26.035,0,0,0,2.141,2.605h-18.057v-2.605Zm-11.633-1.784v-2.605h8.886c.214.393.428.785.642,1.213.286.5.571.964.856,1.427h-10.384Zm29.334,4.032c-3.176,1.82-9.35-2.712-13.525-9.956a27.089,27.089,0,0,1-3.711-10.706c-.214-2.534.25-4.5,1.285-5.531l.607-.464a3.3,3.3,0,0,1,1.57-.393c3.354,0,8.386,4.211,11.919,10.349C1157.72-48.326,1158.576-40.654,1155.4-38.834Z" transform="translate(-956.84 285.608)"/><path class="a" d="M1192.662-40.007c-1.534-2.141-4.247-1.57-5.424-1.32-.678.143-3,.535-3.711-.642a2.335,2.335,0,0,1,.821-3.069,5.7,5.7,0,0,1,2.712-.892l-.071-1.784a7.858,7.858,0,0,0-3.033.821L1182.563-49l-1.463.964,1.5,2.248a3.952,3.952,0,0,0-.535,4.711c.892,1.5,2.926,2.034,5.6,1.463,1.642-.357,2.891-.393,3.6.607a2.514,2.514,0,0,1-.785,3.426,6.658,6.658,0,0,1-3.283,1l.036.892.035.892a9.285,9.285,0,0,0,3.354-.821l1.677,2.534,1.463-.964-1.713-2.569A4.25,4.25,0,0,0,1192.662-40.007Z" transform="translate(-996.136 273.614)"/></g></svg>