<svg xmlns="http://www.w3.org/2000/svg" viewBox="0 0 80.293 80.257"><defs><style>.a{fill:#5f4ee4;}</style></defs><g transform="translate(-40 -403)"><path class="a" d="M783.611,578.428l4.782-4.782-4.782-4.782-3.6,3.6-4.247-4.247V563.44L758.417,546.1h-4.782l-4.175-4.211,3.6-3.6-4.782-4.782-4.782,4.782,3.6,3.6-4.175,4.175h-4.782L720.8,563.4v4.782l-4.247,4.247-3.6-3.6-4.853,4.818,4.782,4.782,3.6-3.6,4.247,4.247v4.782L738.076,601.2h4.782l4.175,4.175-3.6,3.6,4.782,4.782,4.782-4.782-3.533-3.569,4.175-4.175h4.782l17.343-17.343v-4.782l4.247-4.247Zm0-7.173L786,573.647l-2.391,2.391-2.391-2.391ZM757.7,547.774l16.344,16.344v2.391l-18.735-18.735Zm16.38,21.126v9.457l-21.162,21.126h-9.385l-21.162-21.126V568.9l21.162-21.126h9.385Zm-28.227-30.618,2.391-2.391,2.391,2.391-2.391,2.391Zm2.391,4.818,3,3h-6ZM722.41,564.118l16.344-16.344h2.391L722.41,566.509Zm-9.528,11.919-2.391-2.391,2.391-2.391,2.391,2.391Zm4.782-2.391,3.033-3.033v6.066Zm21.126,25.872-16.344-16.344v-2.391l18.735,18.735Zm11.848,9.492-2.391,2.391-2.391-2.391,2.391-2.391Zm-2.391-4.818-3-3h6Zm25.836-21.019-16.344,16.344h-2.391l18.735-18.735Zm1.677-12.561,3.033,3.033-3.033,3.033Z" transform="translate(-668.1 -130.5)"/><path class="a" d="M800.113,690.656a.856.856,0,1,1-.857-.856A.825.825,0,0,1,800.113,690.656Z" transform="translate(-726.176 -231.023)"/><path class="a" d="M839.613,690.656a.857.857,0,1,1-.857-.856A.825.825,0,0,1,839.613,690.656Z" transform="translate(-751.58 -231.023)"/><path class="a" d="M819.913,690.656a.857.857,0,1,1-.856-.856A.845.845,0,0,1,819.913,690.656Z" transform="translate(-738.91 -231.023)"/><path class="a" d="M797.082,620.773V619.1a5.856,5.856,0,0,0,5.852-5.852,5.671,5.671,0,0,0-5.852-5.6H795.94l-.107-.714a11.1,11.1,0,0,0-22.054,0l-.107.749H772.53a5.671,5.671,0,0,0-5.853,5.6,5.879,5.879,0,0,0,5.853,5.852v1.677a7.531,7.531,0,0,1-7.53-7.53,7.341,7.341,0,0,1,7.209-7.28,12.743,12.743,0,0,1,25.123,0,7.318,7.318,0,0,1,7.209,7.28A7.417,7.417,0,0,1,797.082,620.773Z" transform="translate(-704.695 -170.311)"/><path class="a" d="M792.759,663.477H786.3V661.8h6.459Z" transform="translate(-718.394 -213.015)"/><path class="a" d="M803.142,627.587h-6.316v-9.492H793.4l6.566-6.495,6.566,6.495h-3.426v9.492Zm-4.639-1.713h2.926v-9.492h.963l-2.427-2.391-2.427,2.391h.964Z" transform="translate(-722.96 -180.73)"/><path class="a" d="M822.666,650.794,816.1,644.3h3.426v-9.6h6.316v9.6h3.426Zm-2.427-4.782,2.427,2.391,2.427-2.391h-.964v-9.6H821.2v9.6Z" transform="translate(-737.559 -195.586)"/></g></svg>