<svg xmlns="http://www.w3.org/2000/svg" viewBox="0 0 80.293 80.257"><defs><style>.a{fill:#5f4ee4;}</style></defs><g transform="translate(-249 -186)"><path class="a" d="M1504.611-118.572l4.782-4.782-4.782-4.782-3.6,3.6-4.246-4.247v-4.782L1479.417-150.9h-4.782l-4.175-4.211,3.6-3.6-4.782-4.782-4.782,4.782,3.6,3.6-4.175,4.175h-4.782L1441.8-133.6v4.782l-4.247,4.247-3.6-3.6-4.853,4.818,4.782,4.782,3.6-3.6,4.246,4.247v4.782L1459.076-95.8h4.782l4.175,4.175-3.6,3.6,4.782,4.782,4.782-4.782-3.533-3.569,4.175-4.175h4.782l17.343-17.343v-4.782l4.246-4.247Zm0-7.173,2.391,2.391-2.391,2.391-2.391-2.391ZM1478.7-149.226l16.344,16.344v2.391l-18.735-18.735Zm16.38,21.126v9.457l-21.162,21.162h-9.385l-21.162-21.162V-128.1l21.162-21.162h9.385Zm-28.227-30.618,2.391-2.391,2.391,2.391-2.391,2.391Zm2.391,4.782,3,3h-6Zm-25.836,21.055,16.344-16.344h2.391l-18.735,18.735Zm-9.528,11.919-2.391-2.391,2.391-2.391,2.391,2.391Zm4.782-2.391,3.033-3.033v6.067Zm21.126,25.872-16.344-16.344v-2.391l18.735,18.735Zm11.848,9.492-2.391,2.391-2.391-2.391,2.391-2.391Zm-2.391-4.818-3-3h6Zm25.836-21.019-16.344,16.344h-2.391l18.735-18.735Zm1.677-12.561,3.033,3.033-3.033,3.033Z" transform="translate(-1180.1 349.5)"/><path class="a" d="M1512.979-80h-24.695L1477.9-69.651l22.732,22.732,22.732-22.732Zm-6.745,11.17-5.6,17.879-5.638-17.879Zm-10.741-1.677,5.139-7.173,5.139,7.173Zm6.78-7.779h8.922l-3.89,7.03Zm-8.315,7.03-3.89-7.03h8.922Zm-1.535.749h-11.277l7.28-7.244Zm.785,1.677,5.567,17.629L1481.147-68.83Zm14.81,0h12.062l-17.629,17.664Zm.821-1.677,4-7.244,7.28,7.244Z" transform="translate(-1211.485 295.798)"/><path class="a" d="M1521.113-94.644a.868.868,0,0,1-.857.856.868.868,0,0,1-.856-.856.868.868,0,0,1,.856-.856A.845.845,0,0,1,1521.113-94.644Z" transform="translate(-1238.176 305.766)"/><path class="a" d="M1560.713-94.644a.868.868,0,0,1-.856.856.868.868,0,0,1-.857-.856.868.868,0,0,1,.857-.856A.868.868,0,0,1,1560.713-94.644Z" transform="translate(-1263.644 305.766)"/><path class="a" d="M1540.913-94.644a.868.868,0,0,1-.857.856.868.868,0,0,1-.856-.856.868.868,0,0,1,.856-.856A.868.868,0,0,1,1540.913-94.644Z" transform="translate(-1250.91 305.766)"/></g></svg>