<svg xmlns="http://www.w3.org/2000/svg" viewBox="0 0 56.027 79.651"><defs><style>.a{fill:#5f4ee4;}</style></defs><g transform="translate(-52 -187)"><path class="a" d="M763.5-53.044a.868.868,0,0,1,.857-.856.868.868,0,0,1,.856.856.868.868,0,0,1-.856.856A.824.824,0,0,1,763.5-53.044Z" transform="translate(-704.22 279.69)"/><path class="a" d="M803.564,6.1a25.976,25.976,0,0,1-16.63,5.924A26.249,26.249,0,0,1,770.305,6.1H767.7c.107.107.25.214.357.321a119.087,119.087,0,0,0,17.2,12.668c-1.856,1.071-3,1.713-3.033,1.749l-1.249.678,5.959,4.032,5.96-4.032-1.249-.678c-.036-.036-1.178-.642-3.033-1.749A118.042,118.042,0,0,0,805.6,6.635c.143-.143.321-.285.464-.428l.107-.107h-2.605ZM789.575,21.659l-2.641,1.784-2.641-1.784c.678-.393,1.57-.892,2.641-1.534C788.005,20.731,788.933,21.266,789.575,21.659Zm-2.641-3.569c-2.391-1.463-5.5-3.426-8.707-5.71a28.5,28.5,0,0,0,8.707,1.392,27.459,27.459,0,0,0,8.707-1.392C792.395,14.665,789.326,16.627,786.935,18.09Z" transform="translate(-706.921 241.102)"/><path class="a" d="M750.2-76.585h4.889a24.519,24.519,0,0,0,16.023,5.96,24.52,24.52,0,0,0,16.023-5.96h4.889l.25-.285a27.962,27.962,0,0,0,6.852-18.342,27.893,27.893,0,0,0-6.852-18.342l-.25-.285h-4.889a24.52,24.52,0,0,0-16.023-5.96,24.52,24.52,0,0,0-16.023,5.96H750.2l-.25.285A27.963,27.963,0,0,0,743.1-95.213a27.963,27.963,0,0,0,6.852,18.342Zm41.039-35.579a26.262,26.262,0,0,1,6.174,16.915,26.12,26.12,0,0,1-6.174,16.915h-2.32a24.628,24.628,0,0,0,6.78-16.915,24.337,24.337,0,0,0-6.78-16.915Zm-20.127-5.96a22.921,22.921,0,0,1,22.875,22.875,22.921,22.921,0,0,1-22.875,22.875,22.921,22.921,0,0,1-22.875-22.875A22.921,22.921,0,0,1,771.113-118.123Zm-20.127,5.96h2.32a24.628,24.628,0,0,0-6.78,16.915,24.4,24.4,0,0,0,6.78,16.915h-2.32a26.386,26.386,0,0,1-6.174-16.915A26.262,26.262,0,0,1,750.987-112.163Z" transform="translate(-691.1 322.073)"/><path class="a" d="M806.141-143.116a118.254,118.254,0,0,0-17.593-13.025c1.856-1.071,3-1.713,3.033-1.749l1.249-.678L786.87-162.6l-5.96,4.033,1.249.678c.036.036,1.178.642,3.033,1.749A116.445,116.445,0,0,0,767.6-143.116h2.641a26.25,26.25,0,0,1,16.63-5.924,26.322,26.322,0,0,1,16.63,5.924ZM784.23-158.71l2.641-1.784,2.641,1.784c-.678.393-1.57.892-2.641,1.535C785.8-157.782,784.872-158.318,784.23-158.71Zm-6.138,9.35c3.247-2.32,6.388-4.318,8.779-5.781,2.427,1.463,5.531,3.462,8.779,5.781a28.1,28.1,0,0,0-8.779-1.427A27.761,27.761,0,0,0,778.092-149.361Z" transform="translate(-706.857 349.6)"/><path class="a" d="M807.76-86.116h0a16.385,16.385,0,0,0-2.569-4.96c.821-2.605.785-4.675-.464-5.674-1.178-.928-3.069-.678-5.567.785a16,16,0,0,0-6.923-1.535A16.25,16.25,0,0,0,776-81.263a16.163,16.163,0,0,0,3.426,9.956c-.856,2.783-.714,4.675.464,5.6a2.527,2.527,0,0,0,1.713.535,8.327,8.327,0,0,0,3.925-1.356,16.176,16.176,0,0,0,6.709,1.463A16.25,16.25,0,0,0,808.474-81.3,14.6,14.6,0,0,0,807.76-86.116Zm-1.57.464c.25,1,.464,3.5-1.963,6.745a11.547,11.547,0,0,1-3.283,2.926,7.6,7.6,0,0,0-2.819,2.712,5.27,5.27,0,0,0-.071,4.853c-1.106-.785-2.819-2.534-3.176-6.281q1.178-1.285,2.248-2.676a53,53,0,0,0,7.387-11.812A13.971,13.971,0,0,1,806.19-85.652Zm-9.6-6.031a7.513,7.513,0,0,0-3.283-4.14,14.652,14.652,0,0,1,10.028,5.067,47.986,47.986,0,0,1-7.494,12.347c-.321.393-.642.821-.964,1.178a18.17,18.17,0,0,1,1.213-4.389C797.09-84.475,798.161-87.4,796.591-91.683Zm-.607,23.624a8.128,8.128,0,0,1-4.853-2.748c.785-.714,1.534-1.5,2.32-2.32A9.879,9.879,0,0,0,795.984-68.059Zm7.744-27.407c.5.393.571,1.392.214,2.926A15.532,15.532,0,0,0,800.909-95C802.443-95.751,803.371-95.751,803.728-95.466Zm-15.844.285a6.122,6.122,0,0,1,7.173,4.068c1.356,3.711.428,6.281-.535,8.957a17.434,17.434,0,0,0-1.356,6.816v.107c-1.035,1.142-2.034,2.177-3,3.069a15.73,15.73,0,0,1-1.285-5.71c-.25-2.605-.5-5.281-2.284-7.637a6.923,6.923,0,0,0-5.317-2.712,6.376,6.376,0,0,0-2.034.285A14.86,14.86,0,0,1,787.883-95.18Zm-9.6,9.778a3.8,3.8,0,0,1,3.033-1.178,5.374,5.374,0,0,1,4.068,2.07c1.5,1.963,1.713,4.318,1.963,6.78.214,2.248.428,4.6,1.677,6.673a35.055,35.055,0,0,1-3.5,2.712,14.6,14.6,0,0,1-7.779-12.918A12.341,12.341,0,0,1,778.284-85.4Zm2.676,18.45c-.392-.285-.571-1.213-.178-2.855a16.7,16.7,0,0,0,3.069,2.427C782.424-66.739,781.424-66.56,780.96-66.953Zm6.245-.607a33.731,33.731,0,0,0,2.712-2.141,9.7,9.7,0,0,0,4.354,2.926,12.413,12.413,0,0,1-2.034.143A15.9,15.9,0,0,1,787.205-67.56ZM799.731-68.7a3.916,3.916,0,0,1-.179-3.783,6.444,6.444,0,0,1,2.32-2.141,13.22,13.22,0,0,0,3.676-3.319,12.868,12.868,0,0,0,1.249-2A14.581,14.581,0,0,1,799.731-68.7Z" transform="translate(-712.259 307.731)"/><path class="a" d="M874.5-53.044a.868.868,0,0,1,.856-.856.868.868,0,0,1,.857.856.868.868,0,0,1-.857.856A.824.824,0,0,1,874.5-53.044Z" transform="translate(-775.609 279.69)"/><path class="a" d="M766.921-72.313a.83.83,0,0,1,1.106-.5.831.831,0,0,1,.5,1.106.83.83,0,0,1-1.106.5A.874.874,0,0,1,766.921-72.313Z" transform="translate(-706.392 291.894)"/><path class="a" d="M871.221-34.313a.83.83,0,0,1,1.106-.5.83.83,0,0,1,.5,1.106.83.83,0,0,1-1.106.5A.9.9,0,0,1,871.221-34.313Z" transform="translate(-773.472 267.455)"/><path class="a" d="M766.9-33.8a.858.858,0,0,1,.5-1.106.858.858,0,0,1,1.106.5A.858.858,0,0,1,768-33.3.816.816,0,0,1,766.9-33.8Z" transform="translate(-706.366 267.511)"/><path class="a" d="M871.195-71.7a.858.858,0,0,1,.5-1.106.858.858,0,0,1,1.106.5.858.858,0,0,1-.5,1.106A.872.872,0,0,1,871.195-71.7Z" transform="translate(-773.446 291.886)"/></g></svg>