<svg xmlns="http://www.w3.org/2000/svg" viewBox="0 0 65.947 65.912"><defs><style>.a{fill:#5f4ee4;}</style></defs><g transform="translate(-152 -85)"><path class="a" d="M1154.248-480.445a10.573,10.573,0,0,1-3.033-.464v-7.458h-7.458a10.771,10.771,0,0,1-.464-3.033v-1h-42.038v1a10.563,10.563,0,0,1-.464,3.033h-7.458v7.458a10.766,10.766,0,0,1-3.033.464h-1v42h1a10.572,10.572,0,0,1,3.033.464v7.458h7.458a10.757,10.757,0,0,1,.464,3.033v1h42.038v-1a10.576,10.576,0,0,1,.464-3.033h7.458v-7.458a10.768,10.768,0,0,1,3.033-.464h1v-42Zm-5.067-5.924v4.6a11.135,11.135,0,0,1-4.568-4.6Zm0,6.852v40.182a13.179,13.179,0,0,0-6.816,6.852h-40.182a13.437,13.437,0,0,0-6.816-6.852v-40.182a13.179,13.179,0,0,0,6.816-6.852h40.182A13.053,13.053,0,0,0,1149.181-479.517Zm-46-10.884h38.112a13.519,13.519,0,0,0,.357,2.034h-38.826A13.534,13.534,0,0,0,1103.182-490.4Zm-7.887,4.032h4.568a11.569,11.569,0,0,1-4.568,4.6Zm-4.032,45.963v-38.077a13.5,13.5,0,0,0,2.034-.357v38.79A20.229,20.229,0,0,0,1091.263-440.406Zm4.032,7.922v-4.6a11.135,11.135,0,0,1,4.568,4.6Zm46,4.033h-38.112a13.533,13.533,0,0,0-.357-2.034h38.826A13.517,13.517,0,0,0,1141.294-428.451Zm7.887-4.033h-4.568a11.569,11.569,0,0,1,4.568-4.6Zm4.032-7.922a13.5,13.5,0,0,0-2.034.357v-38.79a12.09,12.09,0,0,0,2.034.357v38.077Z" transform="translate(-937.3 577.4)"/><path class="a" d="M1160.27-337.865a1.036,1.036,0,0,1-1.035,1.035,1.036,1.036,0,0,1-1.035-1.035,1.036,1.036,0,0,1,1.035-1.035A1.036,1.036,0,0,1,1160.27-337.865Z" transform="translate(-981.613 478.678)"/><path class="a" d="M1207.57-337.865a1.036,1.036,0,0,1-1.035,1.035,1.036,1.036,0,0,1-1.035-1.035,1.036,1.036,0,0,1,1.035-1.035A1.036,1.036,0,0,1,1207.57-337.865Z" transform="translate(-1012.033 478.678)"/><path class="a" d="M1183.97-337.865a1.036,1.036,0,0,1-1.035,1.035,1.036,1.036,0,0,1-1.035-1.035,1.036,1.036,0,0,1,1.035-1.035A1.036,1.036,0,0,1,1183.97-337.865Z" transform="translate(-996.855 478.678)"/><path class="a" d="M1160.27-462.965a1.036,1.036,0,0,1-1.035,1.035,1.036,1.036,0,0,1-1.035-1.035,1.036,1.036,0,0,1,1.035-1.035A1.036,1.036,0,0,1,1160.27-462.965Z" transform="translate(-981.613 559.135)"/><path class="a" d="M1207.57-462.965a1.036,1.036,0,0,1-1.035,1.035,1.036,1.036,0,0,1-1.035-1.035,1.036,1.036,0,0,1,1.035-1.035A1.036,1.036,0,0,1,1207.57-462.965Z" transform="translate(-1012.033 559.135)"/><path class="a" d="M1183.97-462.965a1.036,1.036,0,0,1-1.035,1.035,1.036,1.036,0,0,1-1.035-1.035,1.036,1.036,0,0,1,1.035-1.035A1.036,1.036,0,0,1,1183.97-462.965Z" transform="translate(-996.855 559.135)"/><path class="a" d="M1128.3-353.4v2.034h38.434V-353.4Z" transform="translate(-962.383 488.003)"/><path class="a" d="M1219.2-403.891h2.034V-428.3H1219.2Z" transform="translate(-1020.844 536.174)"/><path class="a" d="M1194.134-386.276V-401.3H1192.1v15.024Z" transform="translate(-1003.415 518.81)"/><path class="a" d="M1165-383.832h2.034V-397.5H1165Z" transform="translate(-985.986 516.366)"/><path class="a" d="M1140.034-367.3v-4.5H1138v4.5Z" transform="translate(-968.621 499.837)"/><path class="a" d="M1139.654-434.685a3.068,3.068,0,0,0,1.392.321,3.3,3.3,0,0,0,1.57-.393l3.069,3,13.561-13.739a3.776,3.776,0,0,0,1.106.178,3.412,3.412,0,0,0,3.39-3.39,3.412,3.412,0,0,0-3.39-3.39,3.412,3.412,0,0,0-3.39,3.39,3.4,3.4,0,0,0,.642,1.963l-11.955,12.1-1.606-1.606a3.27,3.27,0,0,0,.393-1.534,3.412,3.412,0,0,0-3.39-3.39,3.412,3.412,0,0,0-3.39,3.39,3.41,3.41,0,0,0,.464,1.713L1126.2-424.015l1.427,1.427Zm20.733-15.345a1.356,1.356,0,0,1,1.356,1.356,1.355,1.355,0,0,1-1.356,1.356,1.356,1.356,0,0,1-1.356-1.356A1.355,1.355,0,0,1,1160.387-450.03Zm-19.306,10.92a1.355,1.355,0,0,1,1.356,1.356,1.356,1.356,0,0,1-1.356,1.356,1.355,1.355,0,0,1-1.356-1.356A1.355,1.355,0,0,1,1141.081-439.11Z" transform="translate(-961.032 551.481)"/><path class="a" d="M1127.792-433.212l9.207-9.314,2.5,2.5,1.57-8.172-7.779,1.891,2.319,2.32-9.207,9.35Zm10.67-12.276-.25,1.285-1-1Z" transform="translate(-961.161 548.973)"/></g></svg>