<svg xmlns="http://www.w3.org/2000/svg" viewBox="0 0 74.904 72.085"><defs><style>.a{fill:#5f4ee4;}</style></defs><g transform="translate(-251 -299)"><path class="a" d="M1436.1,237.91l14.1,24.48h4.1l2.569,4.461h5.139l2.034,3.569h18.985l2.034-3.569h5.139l2.569-4.461h4.1L1511,237.91l-14.131-24.48h-4.1l-2.569-4.461h-5.139l-2.034-3.569h-18.985l-2.034,3.569h-5.139l-2.569,4.461h-4.1Zm53.136-27.157,1.535,2.676h-3.1l-1.534-2.676Zm-24.159-3.569h16.951l1.035,1.784h-18.985Zm-7.173,3.569h3.1l-1.535,2.676h-3.1Zm-6.673,49.853-13.1-22.7,13.1-22.7h2.034l-13.1,22.7,13.1,22.7Zm6.673,4.461-1.535-2.676h3.1l1.535,2.676Zm24.124,3.569h-16.951l-1.035-1.784h18.985Zm7.208-3.569h-3.069l1.534-2.676h3.1Zm2.569-4.461h-5.139l-2.569,4.461h-21.055l-2.569-4.461h-5.139l-13.1-22.7,13.1-22.7h5.139l2.569-4.461H1484.1l2.569,4.461h5.139l13.1,22.7Zm4.068,0h-2.034l13.1-22.7-13.1-22.7h2.034l13.1,22.7Z" transform="translate(-1185.1 97.133)"/><path class="a" d="M1534.748,195.5h-10.313l-1.035,1.784h12.347Z" transform="translate(-1241.246 103.5)"/><path class="a" d="M1524.8,394.284h10.313l1.035-1.784H1523.8Z" transform="translate(-1241.504 -23.199)"/><path class="a" d="M1554.477,309.7H1552.8a5.747,5.747,0,0,0,5.674,5.1v-1.677A4.067,4.067,0,0,1,1554.477,309.7Z" transform="translate(-1260.155 30.053)"/><path class="a" d="M1486.627,325.213,1487.8,324h-3.6v3.783l1.249-1.32a15.483,15.483,0,0,0,9.35,3.247,13.188,13.188,0,0,0,5.067-.928l-.678-1.535A13.28,13.28,0,0,1,1486.627,325.213Z" transform="translate(-1216.035 20.856)"/><path class="a" d="M1552.364,282.3a9.1,9.1,0,1,0,9.064,9.1A9.107,9.107,0,0,0,1552.364,282.3Zm0,16.558a7.441,7.441,0,1,1,7.387-7.458A7.44,7.44,0,0,1,1552.364,298.858Z" transform="translate(-1254.045 47.675)"/><path class="a" d="M1491.16,273.77a13.961,13.961,0,0,0,3.854-.535c-.178-.535-.357-1.071-.5-1.606a11.9,11.9,0,0,1-3.355.464,12.49,12.49,0,1,1,10.991-18.271c.5-.285,1-.5,1.5-.749a14.1,14.1,0,1,0-12.49,20.7Z" transform="translate(-1211.469 71.407)"/><path class="a" d="M1554.613,299.662a4.335,4.335,0,0,1,.785-1.57l-1-1.392a5.871,5.871,0,0,0-1.5,2.962Z" transform="translate(-1260.219 38.414)"/><path class="a" d="M1561.864,293.806a4.736,4.736,0,0,1,1.427-.428l-.143-1.677a5.375,5.375,0,0,0-2.248.714Z" transform="translate(-1265.364 41.63)"/><path class="a" d="M1502.513,277.062a4.338,4.338,0,0,1,.785-1.57l-1-1.392a5.868,5.868,0,0,0-1.5,2.962Z" transform="translate(-1226.711 52.949)"/><path class="a" d="M1568.175,257.91,1567,259.123h3.6V255.34l-1.249,1.32a14.915,14.915,0,0,0-14.453-2.32l.678,1.535A13.467,13.467,0,0,1,1568.175,257.91Z" transform="translate(-1261.505 66.249)"/><path class="a" d="M1506.374,292.2v-1.677a4.1,4.1,0,0,1-4-3.426H1500.7A5.7,5.7,0,0,0,1506.374,292.2Z" transform="translate(-1226.647 44.588)"/><path class="a" d="M1543.36,268.2a14.168,14.168,0,1,0,14.06,14.167A14.134,14.134,0,0,0,1543.36,268.2Zm0,26.622a12.49,12.49,0,1,1,12.419-12.49A12.466,12.466,0,0,1,1543.36,294.822Z" transform="translate(-1245.041 56.744)"/><path class="a" d="M1500.405,259.7a9.136,9.136,0,0,0-6.673,15.452,8.926,8.926,0,0,0,6.352,2.784h.143a9.8,9.8,0,0,0,2.89-.464V276.9c0-.393.036-.785.036-1.178l-.036-.071a7.933,7.933,0,0,1-3.033.607,7.441,7.441,0,0,1,.107-14.881h.143a7.353,7.353,0,0,1,6.816,4.818l.143-.071a11.944,11.944,0,0,1,1.178-1.142A8.942,8.942,0,0,0,1500.405,259.7Z" transform="translate(-1220.535 62.214)"/><path class="a" d="M1510.948,269.3a5.373,5.373,0,0,0-2.248.714l1,1.356a4.737,4.737,0,0,1,1.427-.428Z" transform="translate(-1231.792 56.036)"/><path class="a" d="M1519.684,234.392a.892.892,0,1,1-.892-.892A.883.883,0,0,1,1519.684,234.392Z" transform="translate(-1237.709 79.061)"/><path class="a" d="M1561.084,234.392a.892.892,0,1,1-.892-.892A.883.883,0,0,1,1561.084,234.392Z" transform="translate(-1264.335 79.061)"/><path class="a" d="M1540.384,234.392a.892.892,0,1,1-.892-.892A.883.883,0,0,1,1540.384,234.392Z" transform="translate(-1251.022 79.061)"/><path class="a" d="M1519.684,355.892a.892.892,0,1,1-.892-.892A.883.883,0,0,1,1519.684,355.892Z" transform="translate(-1237.709 0.919)"/><path class="a" d="M1561.084,355.892a.892.892,0,1,1-.892-.892A.883.883,0,0,1,1561.084,355.892Z" transform="translate(-1264.335 0.919)"/><path class="a" d="M1540.384,355.892a.892.892,0,1,1-.892-.892A.883.883,0,0,1,1540.384,355.892Z" transform="translate(-1251.022 0.919)"/></g></svg>