<svg xmlns="http://www.w3.org/2000/svg" viewBox="0 0 65.947 65.912"><defs><style>.a{fill:#5f4ee4;}</style></defs><g transform="translate(-152 -302)"><path class="a" d="M1154.248,216.555a10.572,10.572,0,0,1-3.033-.464v-7.458h-7.458a10.77,10.77,0,0,1-.464-3.033v-1h-42.038v1a10.562,10.562,0,0,1-.464,3.033h-7.458v7.458a10.765,10.765,0,0,1-3.033.464h-1v42h1a10.572,10.572,0,0,1,3.033.464v7.458h7.458a10.757,10.757,0,0,1,.464,3.033v1h42.038v-1a10.575,10.575,0,0,1,.464-3.033h7.458v-7.458a10.768,10.768,0,0,1,3.033-.464h1v-42Zm-5.067-5.924v4.6a11.135,11.135,0,0,1-4.568-4.6Zm0,6.852v40.182a13.179,13.179,0,0,0-6.816,6.852h-40.182a13.437,13.437,0,0,0-6.816-6.852V217.483a13.179,13.179,0,0,0,6.816-6.852h40.182A13.054,13.054,0,0,0,1149.181,217.483Zm-46-10.884h38.112a13.517,13.517,0,0,0,.357,2.034h-38.826A13.532,13.532,0,0,0,1103.182,206.6Zm-7.887,4.033h4.568a11.569,11.569,0,0,1-4.568,4.6Zm-4.032,45.963V218.517a13.492,13.492,0,0,0,2.034-.357v38.79A20.229,20.229,0,0,0,1091.263,256.594Zm4.032,7.922v-4.6a11.135,11.135,0,0,1,4.568,4.6Zm46,4.032h-38.112a13.533,13.533,0,0,0-.357-2.034h38.826A13.517,13.517,0,0,0,1141.294,268.549Zm7.887-4.032h-4.568a11.569,11.569,0,0,1,4.568-4.6Zm4.032-7.922a13.508,13.508,0,0,0-2.034.357V218.2a12.087,12.087,0,0,0,2.034.357v38.041Z" transform="translate(-937.3 97.4)"/><path class="a" d="M1239.435,315.8a1.035,1.035,0,1,1-1.035,1.035A1.036,1.036,0,0,1,1239.435,315.8Z" transform="translate(-1033.193 25.883)"/><path class="a" d="M1239.435,274.5a1.035,1.035,0,1,1-1.035,1.035A1.036,1.036,0,0,1,1239.435,274.5Z" transform="translate(-1033.193 52.444)"/><path class="a" d="M1239.435,295.1a1.035,1.035,0,1,1-1.035,1.035A1.036,1.036,0,0,1,1239.435,295.1Z" transform="translate(-1033.193 39.196)"/><path class="a" d="M1119.135,315.8a1.035,1.035,0,1,1-1.035,1.035A1.036,1.036,0,0,1,1119.135,315.8Z" transform="translate(-955.823 25.883)"/><path class="a" d="M1119.135,274.5a1.035,1.035,0,1,1-1.035,1.035A1.036,1.036,0,0,1,1119.135,274.5Z" transform="translate(-955.823 52.444)"/><path class="a" d="M1119.135,295.1a1.035,1.035,0,1,1-1.035,1.035A1.036,1.036,0,0,1,1119.135,295.1Z" transform="translate(-955.823 39.196)"/><path class="a" d="M1147.477,241.491l-1.249-1.249,6.673-6.709a2.372,2.372,0,1,0-3.354-3.354l-3,3-1.249-1.249,3-3a4.138,4.138,0,1,1,5.852,5.852Z" transform="translate(-973.316 82.527)"/><path class="a" d="M1219.683,266.176l-2.783-2.284,1.106-1.392,2.784,2.284Z" transform="translate(-1019.365 60.162)"/><path class="a" d="M1204.111,246.278l-4.711-3.818,1.106-1.392,3.39,2.748L1210.07,237l1.32,1.213Z" transform="translate(-1008.11 76.562)"/><path class="a" d="M1182.426,295.484H1170.4V293.7h12.026Z" transform="translate(-989.459 40.096)"/><path class="a" d="M1182.426,314.084H1170.4V312.3h12.026Z" transform="translate(-989.459 28.133)"/><path class="a" d="M1182.426,332.684H1170.4V330.9h12.026Z" transform="translate(-989.459 16.171)"/><path class="a" d="M1160.1,294.4a1,1,0,0,1-1,1,1.021,1.021,0,0,1-1-1,1,1,0,1,1,2,0Z" transform="translate(-981.548 40.289)"/><path class="a" d="M1160.1,313a1,1,0,0,1-1,1,1.021,1.021,0,0,1-1-1,1,1,0,1,1,2,0Z" transform="translate(-981.548 28.326)"/><path class="a" d="M1160.1,331.6a1,1,0,0,1-1,1,1.021,1.021,0,0,1-1-1,1,1,0,1,1,2,0Z" transform="translate(-981.548 16.364)"/><path class="a" d="M1167.609,282.487H1134.1V239.2h20.983v10.67h12.49v32.617Zm-31.724-1.784h29.94V251.654h-12.49v-10.67h-17.45Z" transform="translate(-966.113 75.147)"/><path class="a" d="M1150.591,259.152a2.926,2.926,0,1,1,2.891-2.926A2.909,2.909,0,0,1,1150.591,259.152Zm0-4.068a1.142,1.142,0,1,0,1.142,1.142A1.15,1.15,0,0,0,1150.591,255.084Z" transform="translate(-974.859 66.079)"/></g></svg>