<svg xmlns="http://www.w3.org/2000/svg" viewBox="0 0 65.947 65.912"><defs><style>.a{fill:#5f4ee4;}</style></defs><g transform="translate(-256 -518.772)"><path class="a" d="M1513.248,913.555a10.575,10.575,0,0,1-3.033-.464v-7.458h-7.458a10.765,10.765,0,0,1-.464-3.033v-1h-42.038v1a10.575,10.575,0,0,1-.464,3.033h-7.458v7.458a10.768,10.768,0,0,1-3.033.464h-1v42h1a10.57,10.57,0,0,1,3.033.464v7.458h7.458a10.772,10.772,0,0,1,.464,3.033v1h42.038v-1a10.572,10.572,0,0,1,.464-3.033h7.458v-7.458a10.766,10.766,0,0,1,3.033-.464h1v-42Zm-5.067-5.924v4.6a11.136,11.136,0,0,1-4.568-4.6Zm0,6.852v40.182a13.18,13.18,0,0,0-6.816,6.852h-40.182a13.437,13.437,0,0,0-6.816-6.852V914.483a13.179,13.179,0,0,0,6.816-6.852h40.182A13.054,13.054,0,0,0,1508.181,914.483Zm-46-10.884h38.112a13.516,13.516,0,0,0,.357,2.034h-38.826A13.519,13.519,0,0,0,1462.182,903.6Zm-7.887,4.032h4.568a11.568,11.568,0,0,1-4.568,4.6Zm-4.032,45.963V915.518a13.492,13.492,0,0,0,2.034-.357v38.79A20.2,20.2,0,0,0,1450.263,953.594Zm4.032,7.922v-4.6a11.134,11.134,0,0,1,4.568,4.6Zm46,4.032h-38.112a13.514,13.514,0,0,0-.357-2.034h38.826A13.514,13.514,0,0,0,1500.294,965.549Zm7.887-4.032h-4.568a11.569,11.569,0,0,1,4.568-4.6Zm4.033-7.922a13.484,13.484,0,0,0-2.034.357V915.2a12.089,12.089,0,0,0,2.034.357v38.041Z" transform="translate(-1192.3 -382.828)"/><path class="a" d="M1519.27,1056.135a1.035,1.035,0,1,1-1.035-1.035A1.036,1.036,0,0,1,1519.27,1056.135Z" transform="translate(-1236.612 -481.55)"/><path class="a" d="M1566.57,1056.135a1.035,1.035,0,1,1-1.035-1.035A1.036,1.036,0,0,1,1566.57,1056.135Z" transform="translate(-1267.033 -481.55)"/><path class="a" d="M1542.97,1056.135a1.035,1.035,0,1,1-1.035-1.035A1.036,1.036,0,0,1,1542.97,1056.135Z" transform="translate(-1251.855 -481.55)"/><path class="a" d="M1519.27,931.035a1.035,1.035,0,1,1-1.035-1.035A1.036,1.036,0,0,1,1519.27,931.035Z" transform="translate(-1236.612 -401.093)"/><path class="a" d="M1566.57,931.035a1.035,1.035,0,1,1-1.035-1.035A1.036,1.036,0,0,1,1566.57,931.035Z" transform="translate(-1267.033 -401.093)"/><path class="a" d="M1542.97,931.035a1.035,1.035,0,1,1-1.035-1.035A1.036,1.036,0,0,1,1542.97,931.035Z" transform="translate(-1251.855 -401.093)"/><path class="a" d="M1522.421,991.335H1477.1V963.5h13.168v1.82h-11.384v24.231h41.752V965.32h-11.384V963.5h13.168Z" transform="translate(-1210.823 -422.638)"/><path class="a" d="M1572.619,1028.12H1560.7v-1.82h11.919Z" transform="translate(-1264.589 -463.028)"/><path class="a" d="M1590.884,1012.332H1589.1V1007.3h1.784Z" transform="translate(-1282.855 -450.808)"/><path class="a" d="M1590.884,998.949H1589.1V997.2h1.784Z" transform="translate(-1282.855 -444.312)"/><path class="a" d="M1500.532,978.645,1478.3,965.37l.928-1.57,21.3,12.74,21.3-12.74.928,1.57Z" transform="translate(-1211.594 -422.831)"/><path class="a" d="M1520.475,959.628l-8.743-5.5a5.238,5.238,0,0,1-1.642-7.173,5.141,5.141,0,0,1,7.1-1.677l3.247,2.07,3.247-2.07a4.977,4.977,0,0,1,3.89-.642,5.088,5.088,0,0,1,3.212,2.32,5.238,5.238,0,0,1-1.642,7.173Zm-6-13.346a5.332,5.332,0,0,0-.749.071,3.381,3.381,0,0,0-2.105,1.5,3.441,3.441,0,0,0,1.071,4.711l7.78,4.925,7.779-4.925a3.441,3.441,0,0,0,1.07-4.711,3.137,3.137,0,0,0-2.105-1.5,3.309,3.309,0,0,0-2.534.428l-4.211,2.641-4.211-2.641A3.449,3.449,0,0,0,1514.48,946.281Z" transform="translate(-1231.537 -410.415)"/></g></svg>