<svg xmlns="http://www.w3.org/2000/svg" viewBox="0 0 74.191 76.01"><defs><style>.a{fill:#5f4ee4;}</style></defs><g transform="translate(-43 -514)"><path class="a" d="M789.135,918.519l2.284-2.819-12.383-14.631H774.4l-3-3.568H737.355l-3,3.568h-4.639L717.336,915.7l2.284,2.819-2.32,2.748,27.371,33.866.25.321h4.568l3.747,4.639L749.81,964.3l4.568,5.638,4.568-5.638-3.426-4.211,3.747-4.639h4.568l27.657-34.187Zm-10.956-15.7L789.064,915.7l-1.142,1.392-12.1-14.31h2.355Zm-40.039-3.533h32.4l1.5,1.784h-35.4Zm-7.637,3.533h2.32l-12.1,14.31-1.142-1.392Zm15.2,50.852L719.513,921.3l1.177-1.392,27.3,33.759ZM756.59,964.3l-2.248,2.819-2.248-2.819,2.248-2.819Zm-2.248-5.6h0l-2.605-3.247h5.21Zm4.068-5.032h-8.136l-28.406-35.151,13.275-15.7h38.4l13.275,15.7Zm4.568,0h-2.284l27.3-33.759,1.178,1.392Z" transform="translate(-674.3 -379.932)"/><path class="a" d="M808.973,887.5H785.6l-1.5,1.784h26.372Z" transform="translate(-717.262 -373.5)"/><path class="a" d="M866.758,924.1a.907.907,0,0,0,.107-1.285.867.867,0,0,0-1.249-.107.907.907,0,0,0-.107,1.285A.9.9,0,0,0,866.758,924.1Z" transform="translate(-769.48 -396.005)"/><path class="a" d="M893.558,956a.907.907,0,0,0,.107-1.285.867.867,0,0,0-1.249-.107.907.907,0,0,0-.107,1.285A.867.867,0,0,0,893.558,956Z" transform="translate(-786.717 -416.522)"/><path class="a" d="M880.158,940a.907.907,0,0,0,.107-1.285.867.867,0,0,0-1.249-.107.907.907,0,0,0-.107,1.285A.867.867,0,0,0,880.158,940Z" transform="translate(-778.098 -406.231)"/><path class="a" d="M774.216,924.1a.907.907,0,0,1-.107-1.285.867.867,0,0,1,1.249-.107.907.907,0,0,1,.107,1.285A.9.9,0,0,1,774.216,924.1Z" transform="translate(-710.697 -396.005)"/><path class="a" d="M747.416,956a.907.907,0,0,1-.107-1.285.867.867,0,0,1,1.249-.107.907.907,0,0,1,.107,1.285A.867.867,0,0,1,747.416,956Z" transform="translate(-693.461 -416.522)"/><path class="a" d="M760.816,940a.907.907,0,0,1-.107-1.285.867.867,0,0,1,1.249-.107.907.907,0,0,1,.107,1.285A.867.867,0,0,1,760.816,940Z" transform="translate(-702.079 -406.231)"/><path class="a" d="M807,962.5a8.1,8.1,0,1,1,8.1-8.1A8.118,8.118,0,0,1,807,962.5Zm0-14.417a6.316,6.316,0,1,0,6.316,6.316A6.328,6.328,0,0,0,807,948.084Z" transform="translate(-726.78 -411.317)"/><path class="a" d="M792.337,966.323,779.847,949.8c-3.319-4.389-3.747-7.672-3.747-10.063a16.237,16.237,0,1,1,32.474,0c0,2.391-.428,5.674-3.747,10.063Zm0-41.039a14.484,14.484,0,0,0-14.453,14.453c0,2.248.392,5.031,3.354,8.993L792.3,963.361l11.1-14.631c2.962-3.925,3.354-6.745,3.354-8.993A14.43,14.43,0,0,0,792.337,925.284Z" transform="translate(-712.117 -396.653)"/><path class="a" d="M809.567,1009.322,804,1001.971l1.427-1.071,5.567,7.351Z" transform="translate(-730.06 -446.432)"/><path class="a" d="M792.961,986.43l-2.32-3.033a15.276,15.276,0,0,1-2.141-3.854l1.677-.642a12.79,12.79,0,0,0,1.891,3.39l2.32,3.033Z" transform="translate(-720.092 -432.283)"/><path class="a" d="M786.55,970.6a11.863,11.863,0,0,1-.25-2.5h1.784a10.286,10.286,0,0,0,.214,2.105Z" transform="translate(-718.677 -425.337)"/></g></svg>