<svg xmlns="http://www.w3.org/2000/svg" viewBox="0 0 74.904 72.085"><defs><style>.a{fill:#5f4ee4;}</style></defs><g transform="translate(-251 -82)"><path class="a" d="M1436.1-458.09l14.1,24.48h4.1l2.569,4.461h5.139l2.034,3.569h18.985l2.034-3.569h5.139l2.569-4.461h4.1L1511-458.09l-14.131-24.48h-4.1l-2.569-4.461h-5.139l-2.034-3.569h-18.985l-2.034,3.569h-5.139l-2.569,4.461h-4.1Zm53.136-27.157,1.535,2.676h-3.1l-1.534-2.676Zm-24.159-3.569h16.951l1.035,1.784h-18.985Zm-7.173,3.569h3.1l-1.535,2.676h-3.1Zm-6.673,49.853-13.1-22.7,13.1-22.7h2.034l-13.1,22.7,13.1,22.7Zm6.673,4.461-1.535-2.676h3.1l1.535,2.676Zm24.124,3.569h-16.951l-1.035-1.784h18.985Zm7.208-3.569h-3.069l1.534-2.676h3.1Zm2.569-4.461h-5.139l-2.569,4.461h-21.055l-2.569-4.461h-5.139l-13.1-22.7,13.1-22.7h5.139l2.569-4.461H1484.1l2.569,4.461h5.139l13.1,22.7Zm4.068,0h-2.034l13.1-22.7-13.1-22.7h2.034l13.1,22.7Z" transform="translate(-1185.1 576.133)"/><path class="a" d="M1534.748-500.5h-10.313l-1.035,1.784h12.347Z" transform="translate(-1241.246 582.5)"/><path class="a" d="M1524.8-301.716h10.313l1.035-1.784H1523.8Z" transform="translate(-1241.504 455.801)"/><path class="a" d="M1519.684-461.608a.883.883,0,0,1-.892.892.883.883,0,0,1-.892-.892.883.883,0,0,1,.892-.892A.883.883,0,0,1,1519.684-461.608Z" transform="translate(-1237.709 558.061)"/><path class="a" d="M1561.084-461.608a.883.883,0,0,1-.892.892.883.883,0,0,1-.892-.892.884.884,0,0,1,.892-.892A.883.883,0,0,1,1561.084-461.608Z" transform="translate(-1264.335 558.061)"/><path class="a" d="M1540.384-461.608a.883.883,0,0,1-.892.892.883.883,0,0,1-.892-.892.883.883,0,0,1,.892-.892A.883.883,0,0,1,1540.384-461.608Z" transform="translate(-1251.022 558.061)"/><path class="a" d="M1519.684-340.108a.883.883,0,0,1-.892.892.883.883,0,0,1-.892-.892.883.883,0,0,1,.892-.892A.883.883,0,0,1,1519.684-340.108Z" transform="translate(-1237.709 479.919)"/><path class="a" d="M1561.084-340.108a.883.883,0,0,1-.892.892.883.883,0,0,1-.892-.892.883.883,0,0,1,.892-.892A.883.883,0,0,1,1561.084-340.108Z" transform="translate(-1264.335 479.919)"/><path class="a" d="M1540.384-340.108a.883.883,0,0,1-.892.892.883.883,0,0,1-.892-.892.883.883,0,0,1,.892-.892A.883.883,0,0,1,1540.384-340.108Z" transform="translate(-1251.022 479.919)"/><path class="a" d="M1532.469-443.3H1511.7v1.784h20.769Z" transform="translate(-1233.722 545.712)"/><path class="a" d="M1530.58-433.9H1505.1v1.784h25.479Z" transform="translate(-1229.477 539.667)"/><path class="a" d="M1496.061-368.2a3.975,3.975,0,0,0-3.961,3.961,3.975,3.975,0,0,0,3.961,3.961,3.975,3.975,0,0,0,3.961-3.961A3.952,3.952,0,0,0,1496.061-368.2Zm0,6.138a2.163,2.163,0,0,1-2.177-2.177,2.163,2.163,0,0,1,2.177-2.177,2.163,2.163,0,0,1,2.177,2.177A2.185,2.185,0,0,1,1496.061-362.062Z" transform="translate(-1221.116 497.412)"/><path class="a" d="M1487.314-416.9h0l-4.211-14.952h5.1l7.387,12.633h-4.318v1.784h24.409l5.924-16.2h-39.04l-1.427-5.067H1478.5v1.784h1.32L1485.958-415l.749-.071a3.264,3.264,0,0,1,.607-.036,5.506,5.506,0,0,1,5.5,5.531v.892h16.237v-1.784h-14.488A7.3,7.3,0,0,0,1487.314-416.9Zm3-14.952h7.066l7.387,12.633H1497.7Zm9.135,0h6.709l7.387,12.633h-6.709Zm15.488,11.491-6.709-11.455h10.92Z" transform="translate(-1212.37 542.754)"/><path class="a" d="M1572.161-368.2a3.975,3.975,0,0,0-3.961,3.961,3.975,3.975,0,0,0,3.961,3.961,3.975,3.975,0,0,0,3.961-3.961A3.93,3.93,0,0,0,1572.161-368.2Zm0,6.138a2.163,2.163,0,0,1-2.177-2.177,2.163,2.163,0,0,1,2.177-2.177,2.163,2.163,0,0,1,2.177,2.177A2.186,2.186,0,0,1,1572.161-362.062Z" transform="translate(-1270.059 497.412)"/></g></svg>