<svg xmlns="http://www.w3.org/2000/svg" viewBox="0 0 89.928 71.8"><defs><style>.a{fill:#5f4ee4;}</style></defs><g transform="translate(-244 -407.09)"><path class="a" d="M1496.678,617.164h8.35L1500.6,610.1h-6.245l-2.819-4.5,2.105-3.283-25.694-41h-4.175l-2.676-4.282,3.14-5-4.175-6.638-4.175,6.638,3.14,5-2.677,4.282h-4.175l-25.694,41.039,2.105,3.283-2.819,4.5h-6.245L1415.1,617.2h8.351l3.319-5.281h5.924l2.284,3.533h50.246l2.284-3.533h5.888Zm2.962-5.281,2.212,3.533h-4.175l-2.213-3.533Zm-32.652-48.747,24.587,39.219L1490.5,604l-25.587-40.825Zm22.446,42.466-2.926,4.5h-52.886l-2.926-4.532,26.622-42.466h5.5Zm-31.439-53.529,2.105-3.319,2.07,3.319-2.07,3.319Zm2.07,6.673,1.642,2.6h-3.283Zm-31.475,43.572,24.588-39.219h2.07l-25.587,40.825Zm-6.138,13.061h-4.175l2.212-3.533h4.175Zm5.424-5.281,1.784-2.855,1.856,2.855Zm56.348,3.533h-48.318l-1.142-1.749h50.6Zm6.245-6.388,1.784,2.855h-3.64Z" transform="translate(-1171.1 -138.31)"/><path class="a" d="M1495.892,671.878a.888.888,0,1,1-1.213.321A.88.88,0,0,1,1495.892,671.878Z" transform="translate(-1222.201 -219.574)"/><path class="a" d="M1517.092,636.479a.887.887,0,1,1-1.213.321A.881.881,0,0,1,1517.092,636.479Z" transform="translate(-1235.836 -196.807)"/><path class="a" d="M1506.492,654.179a.887.887,0,1,1-1.213.321A.88.88,0,0,1,1506.492,654.179Z" transform="translate(-1229.019 -208.191)"/><path class="a" d="M1582.7,671.878a.888.888,0,1,0,1.213.321A.881.881,0,0,0,1582.7,671.878Z" transform="translate(-1278.605 -219.574)"/><path class="a" d="M1561.5,636.479a.888.888,0,1,0,1.213.321A.881.881,0,0,0,1561.5,636.479Z" transform="translate(-1264.97 -196.807)"/><path class="a" d="M1572.1,654.179a.888.888,0,1,0,1.213.321A.88.88,0,0,0,1572.1,654.179Z" transform="translate(-1271.788 -208.191)"/><path class="a" d="M1498.782,678.7H1494V669.42L1504.956,658l1.285,1.213-10.456,10.92v6.78h1.713l1.213-3.818,6.923-5.567,1.106,1.392-6.495,5.21Z" transform="translate(-1221.844 -210.728)"/><path class="a" d="M1536.534,638.767a2.534,2.534,0,1,1,2.534-2.534A2.543,2.543,0,0,1,1536.534,638.767Zm0-3.319a.785.785,0,1,0,.785.785A.769.769,0,0,0,1536.534,635.449Z" transform="translate(-1247.57 -195.099)"/><path class="a" d="M1532.99,647.827h-10.313l-2.177-5.353,2.427-1.82a52.176,52.176,0,0,1-1.249-11.741c0-9.385,2.106-18.913,6.138-18.913s6.138,9.528,6.138,18.913a50.636,50.636,0,0,1-1.249,11.741l2.427,1.82Zm-4.247-1.784h3.069l1.213-3-2.284-1.713.143-.571a48.431,48.431,0,0,0,1.32-11.848c0-10.456-2.6-17.129-4.389-17.129s-4.39,6.673-4.39,17.129a48.436,48.436,0,0,0,1.32,11.848l.143.571-2.284,1.713,1.213,3h3.069V626.7h1.784v19.342Z" transform="translate(-1238.887 -179.857)"/><path class="a" d="M1565.24,678.762h-4.782l-1.463-4.532-6.495-5.21,1.106-1.392,6.923,5.567,1.214,3.818h1.713v-6.78L1553,659.313l1.285-1.213,10.955,11.419Z" transform="translate(-1259.468 -210.792)"/></g></svg>