<svg xmlns="http://www.w3.org/2000/svg" viewBox="0 0 56.026 79.651"><defs><style>.a{fill:#5f4ee4;}</style></defs><g transform="translate(-156 -403.682)"><path class="a" d="M1219.779,683.179a.858.858,0,1,1,0-1.213A.884.884,0,0,1,1219.779,683.179Z" transform="translate(-1021.456 -225.327)"/><path class="a" d="M1203.779,694.379a.858.858,0,1,1,0-1.213A.821.821,0,0,1,1203.779,694.379Z" transform="translate(-1011.166 -232.53)"/><path class="a" d="M1231.579,665.679a.858.858,0,1,1,0-1.213A.885.885,0,0,1,1231.579,665.679Z" transform="translate(-1029.045 -214.072)"/><path class="a" d="M1142.518,604.066a.858.858,0,1,1,0,1.213A.821.821,0,0,1,1142.518,604.066Z" transform="translate(-972.529 -175.226)"/><path class="a" d="M1159.066,593.366a.858.858,0,1,1,0,1.213A.884.884,0,0,1,1159.066,593.366Z" transform="translate(-983.189 -168.344)"/><path class="a" d="M1130.666,620.866a.858.858,0,1,1,0,1.213A.884.884,0,0,1,1130.666,620.866Z" transform="translate(-964.924 -186.031)"/><path class="a" d="M1164.264,702.7a25.976,25.976,0,0,1-16.63,5.924,26.249,26.249,0,0,1-16.63-5.924H1128.4c.107.107.25.214.357.321a119.079,119.079,0,0,0,17.2,12.668c-1.856,1.071-3,1.713-3.033,1.749l-1.249.678,5.959,4.033,5.96-4.033-1.249-.678c-.036-.036-1.178-.642-3.033-1.749a118.031,118.031,0,0,0,16.986-12.454c.143-.143.321-.285.464-.428l.107-.107Zm-13.989,15.559-2.641,1.784-2.641-1.784c.678-.393,1.57-.892,2.641-1.534C1148.705,717.331,1149.633,717.867,1150.276,718.259Zm-2.641-3.569c-2.391-1.463-5.5-3.426-8.707-5.71a28.5,28.5,0,0,0,8.707,1.392,27.46,27.46,0,0,0,8.707-1.392C1153.13,711.265,1150.026,713.227,1147.635,714.69Z" transform="translate(-963.621 -238.817)"/><path class="a" d="M1110.9,620.016h4.889a24.52,24.52,0,0,0,32.046,0h4.889l.25-.286a27.978,27.978,0,0,0,0-36.685l-.25-.286h-4.889a24.52,24.52,0,0,0-32.046,0H1110.9l-.25.286a27.978,27.978,0,0,0,0,36.685Zm41.039-35.579a26.26,26.26,0,0,1,0,33.83h-2.32a24.628,24.628,0,0,0,6.78-16.915,24.337,24.337,0,0,0-6.78-16.915Zm-20.127-5.959a22.875,22.875,0,1,1-22.875,22.875A22.921,22.921,0,0,1,1131.813,578.477Zm-20.127,5.959h2.319a24.489,24.489,0,0,0,0,33.83h-2.319a26.259,26.259,0,0,1,0-33.83Z" transform="translate(-947.8 -157.845)"/><path class="a" d="M1166.841,553.484a118.241,118.241,0,0,0-17.593-13.025c1.856-1.071,3-1.713,3.033-1.749l1.249-.678L1147.57,534l-5.959,4.032,1.249.678c.036.036,1.177.642,3.033,1.749a116.445,116.445,0,0,0-17.593,13.025h2.641a26.3,26.3,0,0,1,33.259,0ZM1144.93,537.89l2.641-1.784,2.641,1.784c-.678.393-1.57.892-2.641,1.534C1146.5,538.818,1145.608,538.282,1144.93,537.89Zm-6.138,9.35c3.247-2.32,6.388-4.318,8.779-5.781,2.427,1.463,5.531,3.462,8.779,5.781a28.094,28.094,0,0,0-8.779-1.427A27.76,27.76,0,0,0,1138.792,547.239Z" transform="translate(-963.557 -130.318)"/><path class="a" d="M1228,605.4" transform="translate(-1027.678 -176.239)"/><path class="a" d="M1183.6,649.8" transform="translate(-999.123 -204.794)"/><path class="a" d="M1154,627.4a10.1,10.1,0,1,0,18.878-5l-1.32,1.32a8.18,8.18,0,0,1,.856,3.676,8.315,8.315,0,1,1-8.315-8.315,8.178,8.178,0,0,1,3.676.856l1.32-1.32a10.249,10.249,0,0,0-5-1.32A10.113,10.113,0,0,0,1154,627.4Z" transform="translate(-980.086 -183.892)"/><path class="a" d="M1174.917,633.236a2.705,2.705,0,0,0-.535-.036,4.391,4.391,0,1,0,4.39,4.389,3.051,3.051,0,0,0-.036-.571l-2.569,2.462a2.508,2.508,0,0,1-.821.535,2.619,2.619,0,0,1-3.6-2.07,2.534,2.534,0,0,1,.607-2.07Z" transform="translate(-990.369 -194.118)"/><g transform="translate(183.371 435.192)"><path class="a" d="M1180.5,629.972l1.285,1.285,7.672-7.672-1.249-1.285Z" transform="translate(-1180.5 -622.3)"/></g><path class="a" d="M1166.726,609.721h-3.6a15.827,15.827,0,0,0-1.927-6.709l-1.321,1.32a14.049,14.049,0,1,1-12.561-7.78,13.581,13.581,0,0,1,6.281,1.5l1.321-1.32a15.826,15.826,0,0,0-6.709-1.927v-3.6h-1.784v3.6a15.871,15.871,0,0,0-14.917,14.917h-3.6v1.784h3.6a15.871,15.871,0,0,0,14.917,14.917v3.6h1.784v-3.6a15.87,15.87,0,0,0,14.917-14.917h3.6Z" transform="translate(-963.3 -167.106)"/><path class="a" d="M1202.172,606.11l3.676,3.676,5.174-5.174-1.213-1.249-3.925,3.925L1204.6,606l3.89-3.854-1.249-1.249-5.139,5.139Z" transform="translate(-1011.021 -173.345)"/></g></svg>